<svg width="1280" height="764" xmlns="http://www.w3.org/2000/svg" preserveAspectRatio="xMidYMid meet">
 <metadata>Created by potrace 1.15, written by Peter Selinger 2001-2017</metadata>

 <g>
  <title>background</title>
  <rect x="-1" y="-1" width="512.424054" height="306.659357" id="canvas_background" fill="none"/>
 </g>
 <g>
  <title>Layer 1</title>
  <path d="m1183.00002,0.69999c-20.4,1.3 -60.8,8.1 -90.5,15.3c-75.5,18.4 -171.40001,52.5 -270.60001,96.3l-14.7,6.5l-7.3,-4.5c-36.1,-21.8 -77.8,-35.9 -120.5,-40.9c-17,-2 -59.5,-1.4 -74,0.9c-43,7 -75.7,18.7 -110.2,39.1c-22.1,13.1 -40,27.2 -59.2,46.5c-87.3,87.9 -112.00001,220.8 -62,334.70001c14.5,33 34,62.1 58.9,87.7c6.3,6.4 11.2,11.9 11,12.1c-0.7,0.7 -38.3,14 -54.9,19.4c-35.30001,11.5 -63.50001,18.5 -96.00001,23.9c-13.6,2.2 -49.7,2.5 -58,0.4c-28.3,-7.2 -35.2,-25.7 -20.8,-56c15.5,-32.6 64.9,-84.30001 128.80001,-134.50001c4.1,-3.3 7.9,-6.3 8.4,-6.7c0.7,-0.7 -1,-12.5 -2,-13.7c-0.3,-0.5 -30.1,23.4 -48.90001,39.2c-48.6,40.80001 -92.4,84.60001 -113.7,113.60001c-16.6,22.6 -23.9,39 -24.2,53.5c0,7 0.3,8.6 2.8,13.2c5.5,10 17.1,16.5 34.6,19.3c10.6,1.6 34.4,1.2 51.3,-1c48.00001,-6.1 113.90001,-25 184.90001,-52.9l19.6,-7.8l3.1,2.4c1.7,1.4 3.1,2.8 3.1,3.3c0,0.4 -11.4,5.3 -25.3,10.8c-70.8,28.2 -131.1,47.1 -180.20001,56.5c-28.1,5.5 -34.8,6.2 -60,6.2c-26.5,0 -32.2,-0.8 -44,-6.5c-47.3,-22.6 -6.8,-94.4 108,-192.10001c27.60001,-23.4 63.10001,-50.9 80.10001,-62l7.7,-5l-0.7,-6.7c-0.3,-3.7 -0.6,-7.7 -0.6,-8.9c0,-2 -0.9,-1.6 -8.7,3.9c-64.30001,44.9 -164.30001,133.00001 -208.70001,183.80001c-20.9,23.9 -38.6,48.9 -45.7,64.5c-7.7,17 -9,31.5 -3.6,40.7c6.7,11.5 20.5,18.7 41.8,21.8c12.4,1.8 47.4,0.8 65.4,-2c70.9,-10.8 161.40001,-39.3 265.70001,-83.6l24.6,-10.5l4.1,2.8c2.2,1.5 4,3.1 4.1,3.4c0,0.4 -9.3,4.7 -20.8,9.7c-187.20001,81.5 -331.60001,116.9 -393.30001,96.5c-17.6,-5.8 -27.4,-16 -29.8,-31c-9.1,-56.5 100.4,-172.4 284.30001,-301.00001l19,-13.2l-0.3,-5.8c-0.1,-3.2 -0.4,-5.9 -0.5,-6c-0.9,-0.9 -64.7,46.10001 -94.10001,69.20001c-163.2,128.5 -254.1,229.5 -250.3,278c1,11.7 8.1,22.4 19.2,28.9c5.9,3.5 20.2,8.1 30.1,9.7c11.8,2 46.6,1.7 64.5,-0.5c89.6,-10.9 222,-54 365.30001,-118.9l18.9,-8.6l13.1,6.9c69.7,36.1 152.9,42.5 228.2,17.5c92.4,-30.8 165,-106.4 192.6,-200.30001c6.1,-21.1 11.9,-55.1 11.9,-70.4l0,-4.7l14.3,-9.7c88.6,-60.6 167.90001,-124.1 224.10001,-179.4c46.4,-45.6 73.7,-80.1 88,-111.3c6.9,-14.8 9.1,-23.5 9.1,-35.7c0,-9.8 -0.2,-11 -3.2,-17.3c-10.8,-22.7 -41.3,-32.2 -93.3,-29zm-2.1,25.3c41.1,3.7 60.7,21.5 56.2,51c-9.4,60.1 -111.2,163.9 -274.8,279.8c-9.4,6.7 -17.4,12.2 -17.70001,12.2c-0.29999,0 -0.6,-2.4 -0.6,-5.4l0,-5.4l16.3,-11.8c139.60001,-101.4 227.10001,-190.1 240.80001,-244.5c2.8,-11 2.4,-23.2 -1.1,-30.4c-12.7,-26.2 -58.7,-32.1 -135,-17.4c-56.8,11 -134.3,35.9 -215.50001,69.2l-23.1,9.4l-4.2,-3.3c-2.3,-1.8 -3.9,-3.5 -3.5,-3.7c1.9,-1.1 36.60001,-15.6 57.3,-23.9c110.60001,-44.3 203.50001,-70.4 269.00001,-75.7c15.1,-1.2 23,-1.2 35.9,-0.1zm-68.4,56.5c8.3,1.9 18.2,6.3 23.6,10.5c2.3,1.9 5.1,5.7 7.1,9.7c2.9,5.9 3.2,7.5 3.1,14.4c-0.2,9.8 -2.4,17.9 -8.3,30.4c-16.9,35.4 -60.7,83.2 -126.50001,138c-22.5,18.8 -67.1,53.5 -68.7,53.5c-0.3,0 -0.8,-2.1 -1,-4.6l-0.3,-4.7l8,-6c41.7,-31.6 88.7,-73.1 114.30001,-101c36.5,-39.7 53.1,-67.7 53.4,-90.3c0.1,-7 -0.2,-8.9 -2.6,-13.8c-10.2,-20.7 -44.3,-26.5 -101.10001,-17c-39.2,6.5 -95.8,22.8 -149.6,43.1l-15.6,5.9l-3.9,-3.2c-2.1,-1.8 -3.6,-3.5 -3.4,-3.7c0.6,-0.4 13.2,-5.2 40.5,-15.4c69.6,-25.8 134.80001,-42.8 181.30001,-47.3c12.8,-1.2 41.4,-0.4 49.7,1.5zm-72,40.9c15.2,4.1 27.6,13.3 30.3,22.4c5.2,17.1 -4.5,40.5 -29.9,72.2c-16.8,21.1 -65.80001,67.8 -95.70001,91.3c-5.1,4 -6.1,4.5 -6.6,3c-0.3,-1 -1.4,-5.9 -2.6,-10.8c-11,-47.3 -35.5,-94 -69.2,-131.7c-4.3,-4.8 -7.8,-8.9 -7.8,-9.1c0,-0.9 26.3,-10.8 47.2,-17.8c30.8,-10.2 66.90001,-18.8 89.30001,-21.3c9.4,-1 39.1,0.2 45,1.8z" id="svg_2" fill="#004e66"/>
 </g>
</svg>