<svg width="1280" height="764" xmlns="http://www.w3.org/2000/svg" preserveAspectRatio="xMidYMid meet">
 <metadata>Created by potrace 1.15, written by Peter Selinger 2001-2017</metadata>

 <g>
  <title>background</title>
  <rect fill="none" id="canvas_background" height="402" width="582" y="-1" x="-1"/>
 </g>
 <g>
  <title>Layer 1</title>
  <path fill="#ffffff" id="svg_2" d="m1183.000018,0.699989c-20.4,1.3 -60.800001,8.1 -90.500001,15.3c-75.500001,18.4 -171.400003,52.500001 -270.600004,96.300001l-14.7,6.5l-7.3,-4.5c-36.100001,-21.8 -77.800001,-35.900001 -120.500002,-40.900001c-17,-2 -59.500001,-1.4 -74.000001,0.9c-43.000001,7 -75.700001,18.7 -110.200002,39.100001c-22.1,13.1 -40.000001,27.2 -59.200001,46.500001c-87.300001,87.900001 -112.000002,220.800003 -62.000001,334.700005c14.5,33 34.000001,62.100001 58.900001,87.700001c6.3,6.4 11.2,11.9 11,12.1c-0.7,0.7 -38.300001,14 -54.900001,19.4c-35.300001,11.5 -63.500001,18.5 -96.000001,23.9c-13.6,2.2 -49.700001,2.5 -58.000001,0.4c-28.3,-7.2 -35.200001,-25.7 -20.8,-56.000001c15.5,-32.6 64.900001,-84.300001 128.800002,-134.500002c4.1,-3.3 7.9,-6.3 8.4,-6.7c0.7,-0.7 -1,-12.5 -2,-13.7c-0.3,-0.5 -30.1,23.4 -48.900001,39.200001c-48.600001,40.800001 -92.400001,84.600001 -113.700002,113.600002c-16.6,22.6 -23.9,39.000001 -24.2,53.500001c0,7 0.3,8.6 2.8,13.2c5.5,10 17.1,16.5 34.600001,19.3c10.6,1.6 34.400001,1.2 51.300001,-1c48.000001,-6.1 113.900002,-25 184.900003,-52.900001l19.6,-7.8l3.1,2.4c1.7,1.4 3.1,2.8 3.1,3.3c0,0.4 -11.4,5.3 -25.3,10.8c-70.800001,28.2 -131.100002,47.100001 -180.200003,56.500001c-28.1,5.5 -34.800001,6.2 -60.000001,6.2c-26.5,0 -32.2,-0.8 -44.000001,-6.5c-47.300001,-22.6 -6.8,-94.400001 108.000002,-192.100003c27.6,-23.4 63.100001,-50.900001 80.100001,-62.000001l7.7,-5l-0.7,-6.7c-0.3,-3.7 -0.6,-7.7 -0.6,-8.9c0,-2 -0.9,-1.6 -8.7,3.9c-64.300001,44.900001 -164.300002,133.000002 -208.700003,183.800003c-20.9,23.9 -38.600001,48.900001 -45.700001,64.500001c-7.7,17 -9,31.5 -3.6,40.700001c6.7,11.5 20.5,18.7 41.800001,21.8c12.4,1.8 47.400001,0.8 65.400001,-2c70.900001,-10.8 161.400002,-39.300001 265.700004,-83.600001l24.6,-10.5l4.1,2.8c2.2,1.5 4,3.1 4.1,3.4c0,0.4 -9.3,4.7 -20.8,9.7c-187.200003,81.500001 -331.600005,116.900002 -393.300006,96.500001c-17.6,-5.8 -27.4,-16 -29.8,-31c-9.1,-56.500001 100.400001,-172.400003 284.300004,-301.000004l19,-13.2l-0.3,-5.8c-0.1,-3.2 -0.4,-5.9 -0.5,-6c-0.9,-0.9 -64.700001,46.100001 -94.100001,69.200001c-163.200002,128.500002 -254.100004,229.500003 -250.300004,278.000004c1,11.7 8.1,22.4 19.2,28.9c5.9,3.5 20.2,8.1 30.1,9.7c11.8,2 46.600001,1.7 64.500001,-0.5c89.600001,-10.9 222.000003,-54.000001 365.300005,-118.900002l18.9,-8.6l13.1,6.9c69.700001,36.100001 152.900002,42.500001 228.200003,17.5c92.400001,-30.8 165.000002,-106.400002 192.600003,-200.300003c6.1,-21.1 11.9,-55.100001 11.9,-70.400001l0,-4.7l14.3,-9.7c88.600001,-60.600001 167.900003,-124.100002 224.100003,-179.400003c46.400001,-45.600001 73.700001,-80.100001 88.000001,-111.300002c6.9,-14.8 9.1,-23.5 9.1,-35.700001c0,-9.8 -0.2,-11 -3.2,-17.3c-10.8,-22.7 -41.300001,-32.2 -93.300001,-29zm-2.1,25.3c41.100001,3.7 60.700001,21.5 56.200001,51.000001c-9.4,60.100001 -111.200002,163.900002 -274.800004,279.800004c-9.4,6.7 -17.4,12.2 -17.7,12.2c-0.3,0 -0.6,-2.4 -0.6,-5.4l0,-5.4l16.3,-11.8c139.600002,-101.400002 227.100003,-190.100003 240.800004,-244.500004c2.8,-11 2.4,-23.2 -1.1,-30.4c-12.7,-26.2 -58.700001,-32.1 -135.000002,-17.4c-56.800001,11 -134.300002,35.900001 -215.500003,69.200001l-23.1,9.4l-4.2,-3.3c-2.3,-1.8 -3.9,-3.5 -3.5,-3.7c1.9,-1.1 36.600001,-15.6 57.300001,-23.9c110.600002,-44.300001 203.500003,-70.400001 269.000004,-75.700001c15.1,-1.2 23,-1.2 35.900001,-0.1zm-68.400001,56.500001c8.3,1.9 18.2,6.3 23.6,10.5c2.3,1.9 5.1,5.7 7.1,9.7c2.9,5.9 3.2,7.5 3.1,14.4c-0.2,9.8 -2.4,17.9 -8.3,30.4c-16.9,35.400001 -60.700001,83.200001 -126.500002,138.000002c-22.5,18.8 -67.100001,53.500001 -68.700001,53.500001c-0.3,0 -0.8,-2.1 -1,-4.6l-0.3,-4.7l8,-6c41.700001,-31.6 88.700001,-73.100001 114.300002,-101.000002c36.500001,-39.700001 53.100001,-67.700001 53.400001,-90.300001c0.1,-7 -0.2,-8.9 -2.6,-13.8c-10.2,-20.7 -44.300001,-26.5 -101.100002,-17c-39.200001,6.5 -95.800001,22.8 -149.600002,43.100001l-15.6,5.9l-3.9,-3.2c-2.1,-1.8 -3.6,-3.5 -3.4,-3.7c0.6,-0.4 13.2,-5.2 40.500001,-15.4c69.600001,-25.8 134.800002,-42.800001 181.300003,-47.300001c12.8,-1.2 41.400001,-0.4 49.700001,1.5zm-72.000001,40.900001c15.2,4.1 27.6,13.3 30.3,22.4c5.2,17.1 -4.5,40.500001 -29.9,72.200001c-16.8,21.1 -65.800001,67.800001 -95.700001,91.300001c-5.1,4 -6.1,4.5 -6.6,3c-0.3,-1 -1.4,-5.9 -2.6,-10.8c-11,-47.300001 -35.500001,-94.000001 -69.200001,-131.700002c-4.3,-4.8 -7.8,-8.9 -7.8,-9.1c0,-0.9 26.3,-10.8 47.200001,-17.8c30.8,-10.2 66.900001,-18.8 89.300001,-21.3c9.4,-1 39.100001,0.2 45.000001,1.8z"/>
 </g>
</svg>